<mxfile host="app.diagrams.net" modified="2023-01-10T06:21:31.763Z" agent="5.0 (Macintosh; Intel Mac OS X 10_15_7) AppleWebKit/537.36 (KHTML, like Gecko) Chrome/108.0.0.0 Safari/537.36" etag="v_NMJF_BHREFOjLibNIm" version="20.6.0" type="github">
  <diagram id="C5RBs43oDa-KdzZeNtuy" name="Page-1">
    <mxGraphModel dx="1426" dy="794" grid="1" gridSize="10" guides="1" tooltips="1" connect="1" arrows="1" fold="1" page="1" pageScale="1" pageWidth="827" pageHeight="1169" math="0" shadow="0">
      <root>
        <mxCell id="WIyWlLk6GJQsqaUBKTNV-0" />
        <mxCell id="WIyWlLk6GJQsqaUBKTNV-1" parent="WIyWlLk6GJQsqaUBKTNV-0" />
        <mxCell id="-kyhV3eD7IFAmYkvZ7eR-0" value="开始" style="strokeWidth=2;html=1;shape=mxgraph.flowchart.terminator;whiteSpace=wrap;" vertex="1" parent="WIyWlLk6GJQsqaUBKTNV-1">
          <mxGeometry x="414" y="40" width="100" height="60" as="geometry" />
        </mxCell>
        <mxCell id="-kyhV3eD7IFAmYkvZ7eR-74" value="" style="edgeStyle=none;shape=connector;rounded=0;orthogonalLoop=1;jettySize=auto;html=1;labelBackgroundColor=default;strokeColor=default;fontFamily=Helvetica;fontSize=11;fontColor=default;startArrow=none;startFill=0;endArrow=none;endFill=0;" edge="1" parent="WIyWlLk6GJQsqaUBKTNV-1" source="-kyhV3eD7IFAmYkvZ7eR-1" target="-kyhV3eD7IFAmYkvZ7eR-0">
          <mxGeometry relative="1" as="geometry" />
        </mxCell>
        <mxCell id="-kyhV3eD7IFAmYkvZ7eR-1" value="获取excel的装置code、用途、物料号数据" style="rounded=1;whiteSpace=wrap;html=1;absoluteArcSize=1;arcSize=14;strokeWidth=2;" vertex="1" parent="WIyWlLk6GJQsqaUBKTNV-1">
          <mxGeometry x="409" y="150" width="110" height="50" as="geometry" />
        </mxCell>
        <mxCell id="-kyhV3eD7IFAmYkvZ7eR-33" value="" style="edgeStyle=orthogonalEdgeStyle;rounded=0;orthogonalLoop=1;jettySize=auto;html=1;" edge="1" parent="WIyWlLk6GJQsqaUBKTNV-1" source="-kyhV3eD7IFAmYkvZ7eR-2" target="-kyhV3eD7IFAmYkvZ7eR-6">
          <mxGeometry relative="1" as="geometry" />
        </mxCell>
        <mxCell id="-kyhV3eD7IFAmYkvZ7eR-73" value="" style="edgeStyle=none;shape=connector;rounded=0;orthogonalLoop=1;jettySize=auto;html=1;labelBackgroundColor=default;strokeColor=default;fontFamily=Helvetica;fontSize=11;fontColor=default;startArrow=none;startFill=0;endArrow=none;endFill=0;" edge="1" parent="WIyWlLk6GJQsqaUBKTNV-1" source="-kyhV3eD7IFAmYkvZ7eR-2" target="-kyhV3eD7IFAmYkvZ7eR-1">
          <mxGeometry relative="1" as="geometry" />
        </mxCell>
        <mxCell id="-kyhV3eD7IFAmYkvZ7eR-77" value="" style="shape=connector;rounded=0;orthogonalLoop=1;jettySize=auto;html=1;labelBackgroundColor=default;strokeColor=default;fontFamily=Helvetica;fontSize=11;fontColor=default;startArrow=classic;startFill=1;endArrow=none;endFill=0;" edge="1" parent="WIyWlLk6GJQsqaUBKTNV-1" source="-kyhV3eD7IFAmYkvZ7eR-76">
          <mxGeometry relative="1" as="geometry">
            <mxPoint x="570" y="300" as="targetPoint" />
          </mxGeometry>
        </mxCell>
        <mxCell id="-kyhV3eD7IFAmYkvZ7eR-2" value="校验装置code是否存在、&lt;br&gt;用途是否填写准确&lt;br&gt;物料号是否存在" style="strokeWidth=2;html=1;shape=mxgraph.flowchart.decision;whiteSpace=wrap;" vertex="1" parent="WIyWlLk6GJQsqaUBKTNV-1">
          <mxGeometry x="358.25" y="250" width="211.5" height="100" as="geometry" />
        </mxCell>
        <mxCell id="-kyhV3eD7IFAmYkvZ7eR-62" value="" style="edgeStyle=none;shape=connector;rounded=0;orthogonalLoop=1;jettySize=auto;html=1;labelBackgroundColor=default;strokeColor=default;fontFamily=Helvetica;fontSize=11;fontColor=default;startArrow=blockThin;startFill=1;endArrow=none;endFill=0;" edge="1" parent="WIyWlLk6GJQsqaUBKTNV-1" source="-kyhV3eD7IFAmYkvZ7eR-4" target="-kyhV3eD7IFAmYkvZ7eR-8">
          <mxGeometry relative="1" as="geometry" />
        </mxCell>
        <mxCell id="-kyhV3eD7IFAmYkvZ7eR-4" value="根据装置id分组，查询装置下面的隔间" style="rounded=1;whiteSpace=wrap;html=1;absoluteArcSize=1;arcSize=14;strokeWidth=2;" vertex="1" parent="WIyWlLk6GJQsqaUBKTNV-1">
          <mxGeometry x="403.5" y="960" width="121" height="80" as="geometry" />
        </mxCell>
        <mxCell id="-kyhV3eD7IFAmYkvZ7eR-37" value="" style="edgeStyle=orthogonalEdgeStyle;rounded=0;orthogonalLoop=1;jettySize=auto;html=1;" edge="1" parent="WIyWlLk6GJQsqaUBKTNV-1" source="-kyhV3eD7IFAmYkvZ7eR-5" target="-kyhV3eD7IFAmYkvZ7eR-8">
          <mxGeometry relative="1" as="geometry" />
        </mxCell>
        <mxCell id="-kyhV3eD7IFAmYkvZ7eR-5" value="覆盖用途字段" style="rounded=1;whiteSpace=wrap;html=1;absoluteArcSize=1;arcSize=14;strokeWidth=2;" vertex="1" parent="WIyWlLk6GJQsqaUBKTNV-1">
          <mxGeometry x="414" y="710" width="101" height="50" as="geometry" />
        </mxCell>
        <mxCell id="-kyhV3eD7IFAmYkvZ7eR-9" style="edgeStyle=orthogonalEdgeStyle;rounded=0;orthogonalLoop=1;jettySize=auto;html=1;exitX=0.5;exitY=1;exitDx=0;exitDy=0;exitPerimeter=0;entryX=0.5;entryY=0;entryDx=0;entryDy=0;entryPerimeter=0;" edge="1" parent="WIyWlLk6GJQsqaUBKTNV-1" source="-kyhV3eD7IFAmYkvZ7eR-6" target="-kyhV3eD7IFAmYkvZ7eR-7">
          <mxGeometry relative="1" as="geometry" />
        </mxCell>
        <mxCell id="-kyhV3eD7IFAmYkvZ7eR-42" style="edgeStyle=elbowEdgeStyle;rounded=0;orthogonalLoop=1;jettySize=auto;html=1;strokeColor=default;startArrow=none;startFill=0;entryX=0.84;entryY=0.488;entryDx=0;entryDy=0;entryPerimeter=0;" edge="1" parent="WIyWlLk6GJQsqaUBKTNV-1" source="-kyhV3eD7IFAmYkvZ7eR-6" target="-kyhV3eD7IFAmYkvZ7eR-8">
          <mxGeometry relative="1" as="geometry">
            <mxPoint x="580" y="860" as="targetPoint" />
            <Array as="points">
              <mxPoint x="580" y="610" />
              <mxPoint x="650" y="600" />
            </Array>
          </mxGeometry>
        </mxCell>
        <mxCell id="-kyhV3eD7IFAmYkvZ7eR-6" value="数据库是否存在&lt;br&gt;相同装置id和物料号的数据" style="strokeWidth=2;html=1;shape=mxgraph.flowchart.decision;whiteSpace=wrap;" vertex="1" parent="WIyWlLk6GJQsqaUBKTNV-1">
          <mxGeometry x="393.25" y="400" width="141.5" height="100" as="geometry" />
        </mxCell>
        <mxCell id="-kyhV3eD7IFAmYkvZ7eR-25" style="edgeStyle=orthogonalEdgeStyle;rounded=0;orthogonalLoop=1;jettySize=auto;html=1;entryX=0.5;entryY=0;entryDx=0;entryDy=0;" edge="1" parent="WIyWlLk6GJQsqaUBKTNV-1" source="-kyhV3eD7IFAmYkvZ7eR-7" target="-kyhV3eD7IFAmYkvZ7eR-5">
          <mxGeometry relative="1" as="geometry" />
        </mxCell>
        <mxCell id="-kyhV3eD7IFAmYkvZ7eR-41" style="edgeStyle=orthogonalEdgeStyle;rounded=0;orthogonalLoop=1;jettySize=auto;html=1;exitX=1;exitY=0.5;exitDx=0;exitDy=0;exitPerimeter=0;endArrow=none;endFill=0;entryX=0.86;entryY=0.5;entryDx=0;entryDy=0;entryPerimeter=0;" edge="1" parent="WIyWlLk6GJQsqaUBKTNV-1" source="-kyhV3eD7IFAmYkvZ7eR-7" target="-kyhV3eD7IFAmYkvZ7eR-8">
          <mxGeometry relative="1" as="geometry">
            <mxPoint x="560" y="910" as="targetPoint" />
            <mxPoint x="580" y="600" as="sourcePoint" />
            <Array as="points">
              <mxPoint x="580" y="600" />
              <mxPoint x="580" y="860" />
            </Array>
          </mxGeometry>
        </mxCell>
        <mxCell id="-kyhV3eD7IFAmYkvZ7eR-80" style="edgeStyle=elbowEdgeStyle;shape=connector;rounded=0;orthogonalLoop=1;jettySize=auto;html=1;entryX=1.011;entryY=0.5;entryDx=0;entryDy=0;entryPerimeter=0;labelBackgroundColor=default;strokeColor=default;fontFamily=Helvetica;fontSize=11;fontColor=default;startArrow=none;startFill=0;endArrow=none;endFill=0;exitX=0;exitY=0.5;exitDx=0;exitDy=0;exitPerimeter=0;dashed=1;" edge="1" parent="WIyWlLk6GJQsqaUBKTNV-1" source="-kyhV3eD7IFAmYkvZ7eR-7" target="-kyhV3eD7IFAmYkvZ7eR-13">
          <mxGeometry relative="1" as="geometry" />
        </mxCell>
        <mxCell id="-kyhV3eD7IFAmYkvZ7eR-7" value="用途是否一致" style="strokeWidth=2;html=1;shape=mxgraph.flowchart.decision;whiteSpace=wrap;" vertex="1" parent="WIyWlLk6GJQsqaUBKTNV-1">
          <mxGeometry x="393.25" y="550" width="141.5" height="100" as="geometry" />
        </mxCell>
        <mxCell id="-kyhV3eD7IFAmYkvZ7eR-8" value="装置白名单" style="shape=dataStorage;whiteSpace=wrap;html=1;fixedSize=1;" vertex="1" parent="WIyWlLk6GJQsqaUBKTNV-1">
          <mxGeometry x="414" y="820" width="100" height="80" as="geometry" />
        </mxCell>
        <mxCell id="-kyhV3eD7IFAmYkvZ7eR-72" style="edgeStyle=orthogonalEdgeStyle;shape=connector;rounded=0;orthogonalLoop=1;jettySize=auto;html=1;entryX=0;entryY=0.5;entryDx=0;entryDy=0;entryPerimeter=0;labelBackgroundColor=default;strokeColor=default;fontFamily=Helvetica;fontSize=11;fontColor=default;startArrow=none;startFill=0;endArrow=none;endFill=0;dashed=1;" edge="1" parent="WIyWlLk6GJQsqaUBKTNV-1" source="-kyhV3eD7IFAmYkvZ7eR-13" target="-kyhV3eD7IFAmYkvZ7eR-2">
          <mxGeometry relative="1" as="geometry">
            <Array as="points">
              <mxPoint x="300" y="375" />
              <mxPoint x="300" y="300" />
            </Array>
          </mxGeometry>
        </mxCell>
        <mxCell id="-kyhV3eD7IFAmYkvZ7eR-13" value="用途字典：内部原辅料、产品、中间产品、外购原辅料、副产品" style="shape=note;whiteSpace=wrap;html=1;backgroundOutline=1;darkOpacity=0.05;" vertex="1" parent="WIyWlLk6GJQsqaUBKTNV-1">
          <mxGeometry x="120" y="310" width="90" height="130" as="geometry" />
        </mxCell>
        <mxCell id="-kyhV3eD7IFAmYkvZ7eR-26" value="否" style="text;html=1;strokeColor=none;fillColor=none;align=center;verticalAlign=middle;whiteSpace=wrap;rounded=0;" vertex="1" parent="WIyWlLk6GJQsqaUBKTNV-1">
          <mxGeometry x="409" y="660" width="60" height="30" as="geometry" />
        </mxCell>
        <mxCell id="-kyhV3eD7IFAmYkvZ7eR-27" value="否" style="text;html=1;strokeColor=none;fillColor=none;align=center;verticalAlign=middle;whiteSpace=wrap;rounded=0;" vertex="1" parent="WIyWlLk6GJQsqaUBKTNV-1">
          <mxGeometry x="530" y="570" width="60" height="30" as="geometry" />
        </mxCell>
        <mxCell id="-kyhV3eD7IFAmYkvZ7eR-36" value="否" style="text;html=1;strokeColor=none;fillColor=none;align=center;verticalAlign=middle;whiteSpace=wrap;rounded=0;" vertex="1" parent="WIyWlLk6GJQsqaUBKTNV-1">
          <mxGeometry x="530" y="420" width="60" height="30" as="geometry" />
        </mxCell>
        <mxCell id="-kyhV3eD7IFAmYkvZ7eR-68" value="" style="edgeStyle=none;shape=connector;rounded=0;orthogonalLoop=1;jettySize=auto;html=1;labelBackgroundColor=default;strokeColor=default;fontFamily=Helvetica;fontSize=11;fontColor=default;startArrow=blockThin;startFill=1;endArrow=none;endFill=0;" edge="1" parent="WIyWlLk6GJQsqaUBKTNV-1" source="-kyhV3eD7IFAmYkvZ7eR-43" target="-kyhV3eD7IFAmYkvZ7eR-59">
          <mxGeometry relative="1" as="geometry" />
        </mxCell>
        <mxCell id="-kyhV3eD7IFAmYkvZ7eR-43" value="剔除该条数据" style="rounded=1;whiteSpace=wrap;html=1;absoluteArcSize=1;arcSize=14;strokeWidth=2;" vertex="1" parent="WIyWlLk6GJQsqaUBKTNV-1">
          <mxGeometry x="630" y="1260" width="121" height="80" as="geometry" />
        </mxCell>
        <mxCell id="-kyhV3eD7IFAmYkvZ7eR-66" value="" style="edgeStyle=none;shape=connector;rounded=0;orthogonalLoop=1;jettySize=auto;html=1;labelBackgroundColor=default;strokeColor=default;fontFamily=Helvetica;fontSize=11;fontColor=default;startArrow=blockThin;startFill=1;endArrow=none;endFill=0;" edge="1" parent="WIyWlLk6GJQsqaUBKTNV-1" source="-kyhV3eD7IFAmYkvZ7eR-58" target="-kyhV3eD7IFAmYkvZ7eR-59">
          <mxGeometry relative="1" as="geometry" />
        </mxCell>
        <mxCell id="-kyhV3eD7IFAmYkvZ7eR-79" value="" style="edgeStyle=none;shape=connector;rounded=0;orthogonalLoop=1;jettySize=auto;html=1;labelBackgroundColor=default;strokeColor=default;fontFamily=Helvetica;fontSize=11;fontColor=default;startArrow=classic;startFill=1;endArrow=none;endFill=0;" edge="1" parent="WIyWlLk6GJQsqaUBKTNV-1" source="-kyhV3eD7IFAmYkvZ7eR-78" target="-kyhV3eD7IFAmYkvZ7eR-58">
          <mxGeometry relative="1" as="geometry" />
        </mxCell>
        <mxCell id="-kyhV3eD7IFAmYkvZ7eR-58" value="仓库白名单" style="shape=dataStorage;whiteSpace=wrap;html=1;fixedSize=1;" vertex="1" parent="WIyWlLk6GJQsqaUBKTNV-1">
          <mxGeometry x="414" y="1400" width="100" height="80" as="geometry" />
        </mxCell>
        <mxCell id="-kyhV3eD7IFAmYkvZ7eR-65" value="" style="edgeStyle=none;shape=connector;rounded=0;orthogonalLoop=1;jettySize=auto;html=1;labelBackgroundColor=default;strokeColor=default;fontFamily=Helvetica;fontSize=11;fontColor=default;startArrow=blockThin;startFill=1;endArrow=none;endFill=0;" edge="1" parent="WIyWlLk6GJQsqaUBKTNV-1" source="-kyhV3eD7IFAmYkvZ7eR-59" target="-kyhV3eD7IFAmYkvZ7eR-60">
          <mxGeometry relative="1" as="geometry" />
        </mxCell>
        <mxCell id="-kyhV3eD7IFAmYkvZ7eR-59" value="仓库白名单是否存在&lt;span style=&quot;color: rgba(0, 0, 0, 0); font-family: monospace; font-size: 0px; text-align: start;&quot;&gt;%3CmxGraphModel%3E%3Croot%3E%3CmxCell%20id%3D%220%22%2F%3E%3CmxCell%20id%3D%221%22%20parent%3D%220%22%2F%3E%3CmxCell%20id%3D%222%22%20value%3D%22%E7%94%A8%E9%80%94%E6%98%AF%E5%90%A6%E4%B8%80%E8%87%B4%22%20style%3D%22strokeWidth%3D2%3Bhtml%3D1%3Bshape%3Dmxgraph.flowchart.decision%3BwhiteSpace%3Dwrap%3B%22%20vertex%3D%221%22%20parent%3D%221%22%3E%3CmxGeometry%20x%3D%22393.25%22%20y%3D%22550%22%20width%3D%22141.5%22%20height%3D%22100%22%20as%3D%22geometry%22%2F%3E%3C%2FmxCell%3E%3C%2Froot%3E%3C%2FmxGraphModel%3E&lt;/span&gt;" style="strokeWidth=2;html=1;shape=mxgraph.flowchart.decision;whiteSpace=wrap;" vertex="1" parent="WIyWlLk6GJQsqaUBKTNV-1">
          <mxGeometry x="393.25" y="1250" width="141.5" height="100" as="geometry" />
        </mxCell>
        <mxCell id="-kyhV3eD7IFAmYkvZ7eR-63" value="" style="edgeStyle=none;shape=connector;rounded=0;orthogonalLoop=1;jettySize=auto;html=1;labelBackgroundColor=default;strokeColor=default;fontFamily=Helvetica;fontSize=11;fontColor=default;startArrow=blockThin;startFill=1;endArrow=none;endFill=0;" edge="1" parent="WIyWlLk6GJQsqaUBKTNV-1" source="-kyhV3eD7IFAmYkvZ7eR-60" target="-kyhV3eD7IFAmYkvZ7eR-4">
          <mxGeometry relative="1" as="geometry" />
        </mxCell>
        <mxCell id="-kyhV3eD7IFAmYkvZ7eR-60" value="物料号是否满足&lt;br&gt;隔间的防火等级" style="strokeWidth=2;html=1;shape=mxgraph.flowchart.decision;whiteSpace=wrap;" vertex="1" parent="WIyWlLk6GJQsqaUBKTNV-1">
          <mxGeometry x="393.25" y="1110" width="141.5" height="100" as="geometry" />
        </mxCell>
        <mxCell id="-kyhV3eD7IFAmYkvZ7eR-71" style="edgeStyle=none;shape=connector;rounded=0;orthogonalLoop=1;jettySize=auto;html=1;entryX=0;entryY=0.5;entryDx=0;entryDy=0;entryPerimeter=0;labelBackgroundColor=default;strokeColor=default;fontFamily=Helvetica;fontSize=11;fontColor=default;startArrow=none;startFill=0;endArrow=none;endFill=0;dashed=1;" edge="1" parent="WIyWlLk6GJQsqaUBKTNV-1" source="-kyhV3eD7IFAmYkvZ7eR-70" target="-kyhV3eD7IFAmYkvZ7eR-59">
          <mxGeometry relative="1" as="geometry" />
        </mxCell>
        <mxCell id="-kyhV3eD7IFAmYkvZ7eR-70" value="防火等级：甲乙丙丁戊，甲最高，可以储存所有类型的化学品，以此类推" style="shape=note;whiteSpace=wrap;html=1;backgroundOutline=1;darkOpacity=0.05;" vertex="1" parent="WIyWlLk6GJQsqaUBKTNV-1">
          <mxGeometry x="130" y="1235" width="100" height="130" as="geometry" />
        </mxCell>
        <mxCell id="-kyhV3eD7IFAmYkvZ7eR-76" value="结束" style="rounded=1;whiteSpace=wrap;html=1;fontFamily=Helvetica;fontSize=11;fontColor=default;" vertex="1" parent="WIyWlLk6GJQsqaUBKTNV-1">
          <mxGeometry x="650" y="270" width="120" height="60" as="geometry" />
        </mxCell>
        <mxCell id="-kyhV3eD7IFAmYkvZ7eR-78" value="结束" style="rounded=1;whiteSpace=wrap;html=1;fontFamily=Helvetica;fontSize=11;fontColor=default;" vertex="1" parent="WIyWlLk6GJQsqaUBKTNV-1">
          <mxGeometry x="404.5" y="1540" width="120" height="60" as="geometry" />
        </mxCell>
      </root>
    </mxGraphModel>
  </diagram>
</mxfile>
